<?xml version="1.0" standalone="no"?>
<!DOCTYPE svg PUBLIC "-//W3C//DTD SVG 20010904//EN"
 "http://www.w3.org/TR/2001/REC-SVG-20010904/DTD/svg10.dtd">
<svg version="1.0" xmlns="http://www.w3.org/2000/svg"
 width="1024.000000pt" height="1024.000000pt" viewBox="0 0 1024.000000 1024.000000"
 preserveAspectRatio="xMidYMid meet">

<g transform="translate(0.000000,1024.000000) scale(0.100000,-0.100000)"
fill="#000000" stroke="none">
<path d="M3105 8760 c-1194 -308 -2170 -560 -2170 -560 0 0 12 -206 26 -457
15 -252 82 -1430 149 -2618 106 -1849 126 -2162 139 -2176 9 -9 144 -91 301
-181 157 -91 321 -187 365 -213 l80 -48 -32 -33 c-60 -59 -39 -125 63 -194 25
-16 46 -30 48 -30 2 0 81 -46 177 -101 204 -119 231 -135 284 -164 22 -12 105
-60 185 -106 80 -47 170 -99 200 -116 30 -16 71 -39 90 -50 19 -11 91 -53 160
-92 69 -39 132 -76 140 -81 8 -5 111 -64 229 -132 117 -68 234 -135 260 -151
25 -15 53 -30 61 -34 8 -3 65 -35 125 -71 61 -36 144 -84 185 -107 41 -23 174
-100 295 -170 271 -157 365 -206 416 -212 47 -7 104 11 242 77 59 27 109 50
111 50 3 0 142 65 341 160 75 36 323 150 390 180 28 13 110 51 184 86 73 35
135 64 137 64 3 0 75 34 161 75 85 41 158 75 161 75 3 0 35 14 71 31 163 78
273 129 276 129 2 0 57 25 122 56 65 31 155 74 200 95 46 21 85 39 87 39 2 0
60 27 128 59 110 53 431 202 548 255 25 11 94 45 155 76 93 47 113 61 132 95
34 60 13 114 -61 152 -26 13 -32 13 -80 -7 -28 -13 -755 -353 -1616 -758 -861
-404 -1598 -750 -1638 -768 l-72 -34 2 2937 3 2936 550 173 c303 95 550 174
550 174 0 1 8 3 17 5 18 3 111 32 138 42 8 3 20 7 27 9 7 1 36 10 65 19 77 24
78 24 86 26 4 1 39 13 77 26 39 13 77 26 86 28 20 4 1636 509 1694 529 22 8
101 33 175 56 74 23 146 45 160 50 14 5 84 27 155 49 357 110 651 204 658 210
5 6 -3938 1182 -4013 1197 -8 2 -991 -248 -2185 -556z m-965 -2411 c100 -27
1017 -369 1127 -420 395 -181 638 -465 719 -839 15 -66 19 -128 19 -275 0
-168 -3 -198 -22 -260 -51 -161 -164 -255 -306 -255 l-40 0 87 -86 c235 -233
339 -479 353 -839 12 -321 -39 -475 -179 -535 -45 -19 -64 -22 -147 -18 -101
5 -162 22 -301 83 -72 31 -1114 632 -1209 697 -280 191 -464 440 -536 723 -22
85 -49 352 -38 365 3 3 87 -38 188 -90 127 -65 187 -102 195 -118 5 -13 10
-55 10 -95 0 -95 22 -195 57 -258 57 -106 114 -144 651 -443 275 -152 526
-288 558 -301 68 -28 140 -32 172 -9 51 35 56 64 54 269 -2 225 -16 297 -72
384 -70 108 -122 140 -665 412 -275 137 -506 255 -512 262 -12 12 -39 394 -29
404 2 3 213 -92 468 -210 255 -118 487 -222 517 -231 107 -31 165 -15 200 57
19 39 21 61 21 220 0 196 -9 253 -51 344 -36 77 -113 147 -218 202 -105 54
-912 379 -988 398 -85 21 -137 5 -167 -52 -18 -35 -21 -56 -20 -172 1 -83 -2
-133 -8 -133 -25 0 -378 164 -384 179 -13 29 -17 344 -5 402 23 108 81 197
154 236 73 37 216 39 347 2z"/>
<path d="M7859 6240 c-37 -6 -107 -19 -155 -30 -109 -26 -2004 -609 -2021
-623 -17 -12 -19 -3127 -3 -3127 10 0 1765 813 1895 877 444 222 791 585 938
983 65 175 75 249 98 745 25 530 22 665 -15 780 -65 204 -199 333 -397 380
-81 19 -254 27 -340 15z m156 -482 c94 -49 142 -121 165 -248 14 -79 -14 -948
-34 -1075 -46 -276 -241 -521 -551 -689 -27 -15 -342 -157 -700 -315 l-650
-287 -2 370 c-2 204 1 690 5 1080 l7 709 685 229 c377 126 712 235 745 243 38
9 100 13 170 11 95 -2 117 -6 160 -28z"/>
</g>
</svg>
