<?xml version="1.0" standalone="no"?>
<!DOCTYPE svg PUBLIC "-//W3C//DTD SVG 20010904//EN"
 "http://www.w3.org/TR/2001/REC-SVG-20010904/DTD/svg10.dtd">
<svg version="1.0" xmlns="http://www.w3.org/2000/svg"
 width="180.000000pt" height="180.000000pt" viewBox="0 0 180.000000 180.000000"
 preserveAspectRatio="xMidYMid meet">
<metadata>
Created by potrace 1.16, written by Peter Selinger 2001-2019
</metadata>
<g transform="translate(0.000000,180.000000) scale(0.100000,-0.100000)"
fill="#000000" stroke="none">
<path d="M760 1600 c-80 -21 -246 -63 -370 -95 -124 -32 -226 -59 -228 -60 -2
-2 3 -119 12 -262 8 -142 21 -351 27 -464 l12 -206 44 -25 45 -25 -46 -17
c-25 -10 -46 -23 -45 -29 0 -7 145 -94 321 -195 l321 -183 346 162 c190 89
358 166 374 171 15 6 27 16 27 24 0 8 -2 14 -5 14 -2 0 -26 9 -53 19 l-49 19
-314 -147 -314 -148 -3 511 c-1 280 1 513 5 517 5 3 178 60 386 125 207 65
377 121 377 124 0 8 -689 211 -710 209 -8 0 -80 -18 -160 -39z m-284 -520 c60
-23 123 -51 141 -62 65 -45 104 -143 85 -212 -7 -24 -19 -38 -50 -53 -2 0 10
-20 26 -42 50 -69 55 -193 9 -210 -32 -12 -67 1 -181 66 -151 86 -195 131
-210 216 -8 42 -6 43 33 22 20 -10 31 -25 35 -48 4 -19 14 -41 24 -50 26 -23
200 -117 217 -117 22 0 29 44 14 92 -13 40 -20 45 -114 93 -97 49 -100 52
-103 87 l-3 37 84 -39 c47 -22 94 -40 106 -40 19 0 21 6 21 54 0 46 -4 58 -25
74 -35 27 -206 95 -216 85 -4 -4 -9 -20 -11 -35 -3 -26 -4 -26 -35 -13 -30 13
-33 18 -33 59 0 50 19 76 54 76 13 0 72 -18 132 -40z"/>
<path d="M1270 1065 c-63 -19 -149 -45 -190 -58 l-75 -24 -3 -276 -2 -276 182
86 c283 131 316 168 330 363 11 142 0 182 -56 205 -47 20 -53 19 -186 -20z
m149 -61 c22 -16 23 -21 19 -128 -6 -168 -16 -181 -219 -271 l-119 -54 2 191
3 191 125 43 c142 48 157 50 189 28z"/>
</g>
</svg>
